<?xml version="1.0" encoding="utf-8"?>
<?xml-stylesheet type="text/xsl" href="rss1.xsl"?>
<rss version="2.0" xmlns:atom="http://www.w3.org/2005/Atom" xmlns:content="http://purl.org/rss/1.0/modules/content/" xmlns:dc="http://purl.org/dc/elements/1.1/" xmlns:media="http://search.yahoo.com/mrss/">
<channel>
 <title>Getty</title>
 <link>http://www.gettyimg.com/</link>
 <atom:link href="http://www.gettyimg.com/" rel="self" type="application/rss+xml" />

 
                <item>
                <title><![CDATA[【Apple Music】WEB-RiP - Sylwia Grzeszczak - Karuzela (1080p)]]></title>
                <link><![CDATA[https://sharemania.us/threads/sylwia-grzeszczak-karuzela-1080p.222974/]]></link>
                <description><![CDATA[<article>
<blockquote class="messageText SelectQuoteContainer ugc baseHtml">
<img src="https://i.imgur.com/7HoTh9Q.jpg" class="bbCodeImage LbImage" alt="[​IMG]" data-url="https://i.imgur.com/7HoTh9Q.jpg" style=""><br>
<br>
<div class="bbCodeBlock bbCodeCode">
<div class="type">Code:</div>
<pre>General
Complete name                  : C:\Users\asus\Desktop\Sylwia Grzeszczak - Karuzela.mp4
Format                         : MPEG-4
Format profile                 : Base Media
Codec ID                       : isom (isom/iso2/avc1/mp41)
File size                      : 173 MiB
Duration                       : 3 min 28 s
Overall bit rate               : 6 939 kb/s
Frame rate                     : 25.000 FPS
Movie name                     : Karuzela
Performer                      : Sylwia Grzeszczak
Genre                          : Pop
ContentType                    : Music Video
Recorded date                  : 2012-02-27 08:00:00 UTC
Writing application            : Lavf57.29.101
Copyright                      : ℗ 2012 The copyright in this audiovisual recording is owned by Gorgo under exclusive licence to Parlophone Music Poland Sp. z.o.o.

Video
ID                             : 1
Format                         : AVC
Format/Info                    : Advanced Video Codec
Format profile                 : High@L4
Format settings                : CABAC / 4 Ref Frames
Format settings, CABAC         : Yes
Format settings, Reference fra : 4 frames
Codec ID                       : avc1
Codec ID/Info                  : Advanced Video Coding
Duration                       : 3 min 28 s
Bit rate                       : 6 689 kb/s
Width                          : 1 920 pixels
Height                         : 928 pixels
Display aspect ratio           : 2.069
Frame rate mode                : Constant
Frame rate                     : 25.000 FPS
Color space                    : YUV
Chroma subsampling             : 4:2:0
Bit depth                      : 8 bits
Scan type                      : Progressive
Bits/(Pixel*Frame)             : 0.150
Stream size                    : 166 MiB (96%)
Color range                    : Limited
Color primaries                : BT.709
Transfer characteristics       : BT.709
Matrix coefficients            : BT.709
Codec configuration box        : avcC

Audio
ID                             : 2
Format                         : AAC LC
Format/Info                    : Advanced Audio Codec Low Complexity
Codec ID                       : mp4a-40-2
Duration                       : 3 min 28 s
Bit rate mode                  : Constant
Bit rate                       : 247 kb/s
Channel(s)                     : 2 channels
Channel layout                 : L R
Sampling rate                  : 48.0 kHz
Frame rate                     : 46.875 FPS (1024 SPF)
Compression mode               : Lossy
Stream size                    : 6.15 MiB (4%)
Default                        : Yes
Alternate group                : 1

</pre>
</div>
<div class="bbCodeBlock bbCodeVfcHH HiddenContent">
<div class="attribution type">Hidden Content:</div>
<blockquote>You must either reply or click 'Like' to see the hidden information contained here.</blockquote>
</div>
<div class="messageTextEndMarker">&nbsp;</div>
</blockquote>
</article>]]></description>
                <author><![CDATA[vitalya3]]></author>
                </item>

                
                <item>
                <title><![CDATA[【Unreleased/Unofficial (lossless)】FLAC - Olivia Rodrigo - strange (FLAC 24bit - 96000Hz)]]></title>
                <link><![CDATA[https://sharemania.us/threads/olivia-rodrigo-strange-flac-24bit-96000hz.222972/]]></link>
                <description><![CDATA[<article>
<blockquote class="messageText SelectQuoteContainer ugc baseHtml">
Audio track found on Soulseek &lt;3 <br>
<img src="https://a5.mzstatic.com/us/r1000/0/Music125/v4/33/fd/32/33fd32b1-0e43-9b4a-8ed6-19643f23544e/21UMGIM26092.rgb.jpg" class="bbCodeImage LbImage" alt="[​IMG]" data-url="https://a5.mzstatic.com/us/r1000/0/Music125/v4/33/fd/32/33fd32b1-0e43-9b4a-8ed6-19643f23544e/21UMGIM26092.rgb.jpg" style=""> <br>
<div class="bbCodeBlock bbCodeVfcHH HiddenContent">
<div class="attribution type">Hidden Content:</div>
<blockquote>You must either reply or click 'Like' to see the hidden information contained here.</blockquote>
</div>
<div class="messageTextEndMarker">&nbsp;</div>
</blockquote>
</article>]]></description>
                <author><![CDATA[gianfranco23]]></author>
                </item>

                
                <item>
                <title><![CDATA[【Unreleased/Unofficial (lossless)】FLAC - Olivia Rodrigo - the ones i love (FLAC 24bit - 96000Hz)]]></title>
                <link><![CDATA[https://sharemania.us/threads/olivia-rodrigo-the-ones-i-love-flac-24bit-96000hz.222973/]]></link>
                <description><![CDATA[<article>
<blockquote class="messageText SelectQuoteContainer ugc baseHtml">
Audio track found on Soulseek &lt;3<br>
<img src="https://a5.mzstatic.com/us/r1000/0/Music125/v4/33/fd/32/33fd32b1-0e43-9b4a-8ed6-19643f23544e/21UMGIM26092.rgb.jpg" class="bbCodeImage LbImage" alt="[​IMG]" data-url="https://a5.mzstatic.com/us/r1000/0/Music125/v4/33/fd/32/33fd32b1-0e43-9b4a-8ed6-19643f23544e/21UMGIM26092.rgb.jpg" style=""> <br>
<div class="bbCodeBlock bbCodeVfcHH HiddenContent">
<div class="attribution type">Hidden Content:</div>
<blockquote>You must either reply or click 'Like' to see the hidden information contained here.</blockquote>
</div>
<div class="messageTextEndMarker">&nbsp;</div>
</blockquote>
</article>]]></description>
                <author><![CDATA[gianfranco23]]></author>
                </item>

                
                <item>
                <title><![CDATA[【Apple Music】WEB-RiP - Fergie - M.I.L.F. $ (1080p)]]></title>
                <link><![CDATA[https://sharemania.us/threads/fergie-m-i-l-f-1080p.222975/]]></link>
                <description><![CDATA[<article>
<blockquote class="messageText SelectQuoteContainer ugc baseHtml">
<img src="https://i.imgur.com/rv6VvRW.jpg" class="bbCodeImage LbImage" alt="[​IMG]" data-url="https://i.imgur.com/rv6VvRW.jpg" style=""><br>
<br>
<div class="bbCodeBlock bbCodeCode">
<div class="type">Code:</div>
<pre>General
Complete name                  : C:\Users\asus\Desktop\Fergie - M.I.L.F. $.mp4
Format                         : MPEG-4
Format profile                 : Base Media
Codec ID                       : isom (isom/iso2/avc1/mp41)
File size                      : 181 MiB
Duration                       : 3 min 38 s
Overall bit rate               : 6 944 kb/s
Frame rate                     : 23.976 FPS
Movie name                     : M.I.L.F. $
Performer                      : Fergie
Genre                          : Trilha sonora
ContentType                    : Music Video
Recorded date                  : 2016-07-01 07:00:00 UTC
Writing application            : Lavf57.29.101
Copyright                      : ℗ 2016, 2017 Retrofuture Productions, Inc. under exclusive license to BMG Rights Management (US) LLC

Video
ID                             : 1
Format                         : AVC
Format/Info                    : Advanced Video Codec
Format profile                 : High@L4
Format settings                : CABAC / 4 Ref Frames
Format settings, CABAC         : Yes
Format settings, Reference fra : 4 frames
Codec ID                       : avc1
Codec ID/Info                  : Advanced Video Coding
Duration                       : 3 min 38 s
Bit rate                       : 6 690 kb/s
Width                          : 1 920 pixels
Height                         : 1 080 pixels
Display aspect ratio           : 16:9
Frame rate mode                : Variable
Frame rate                     : 23.976 (23976/1000) FPS
Minimum frame rate             : 23.976 FPS
Maximum frame rate             : 8 000.000 FPS
Color space                    : YUV
Chroma subsampling             : 4:2:0
Bit depth                      : 8 bits
Scan type                      : Progressive
Bits/(Pixel*Frame)             : 0.135
Stream size                    : 174 MiB (96%)
Color range                    : Limited
Color primaries                : BT.709
Transfer characteristics       : BT.709
Matrix coefficients            : BT.709
Codec configuration box        : avcC

Audio
ID                             : 2
Format                         : AAC LC
Format/Info                    : Advanced Audio Codec Low Complexity
Codec ID                       : mp4a-40-2
Duration                       : 3 min 38 s
Bit rate mode                  : Constant
Bit rate                       : 250 kb/s
Channel(s)                     : 2 channels
Channel layout                 : L R
Sampling rate                  : 48.0 kHz
Frame rate                     : 46.875 FPS (1024 SPF)
Compression mode               : Lossy
Stream size                    : 6.50 MiB (4%)
Default                        : Yes
Alternate group                : 1

</pre>
</div>
<div class="bbCodeBlock bbCodeVfcHH HiddenContent">
<div class="attribution type">Hidden Content:</div>
<blockquote>You must either reply or click 'Like' to see the hidden information contained here.</blockquote>
</div>
<div class="messageTextEndMarker">&nbsp;</div>
</blockquote>
</article>]]></description>
                <author><![CDATA[vitalya3]]></author>
                </item>

                </channel></rss>